<?xml version="1.0" encoding="UTF-8"?>
<svg id="Layer_2" data-name="Layer 2" xmlns="http://www.w3.org/2000/svg" viewBox="0 0 144.52 54.74">
  <defs>
    <style>
      .cls-1 {
        fill: #fff;
        stroke-width: 0px;
      }
    </style>
  </defs>
  <g id="Artwork">
    <g>
      <path class="cls-1" d="M136.27,53.35c-.93-.92-1.4-2.07-1.4-3.43s.47-2.48,1.4-3.39c.93-.91,2.07-1.37,3.43-1.37s2.52.45,3.44,1.37c.91.91,1.38,2.05,1.38,3.39s-.46,2.51-1.38,3.43c-.92.93-2.07,1.39-3.44,1.39s-2.51-.46-3.43-1.39ZM142.43,52.67c.73-.73,1.1-1.65,1.1-2.74s-.37-1.99-1.1-2.71c-.73-.72-1.65-1.08-2.73-1.08s-2,.36-2.74,1.08c-.74.72-1.11,1.63-1.11,2.71s.37,2.01,1.11,2.74c.73.73,1.65,1.1,2.74,1.1s2-.37,2.73-1.1ZM137.98,51.72c-.47-.47-.7-1.06-.7-1.77s.23-1.29.7-1.76,1.05-.7,1.76-.7c.61,0,1.12.15,1.53.46.41.31.67.68.79,1.1l-1.01.24c-.06-.23-.22-.43-.45-.59-.24-.17-.52-.25-.84-.25-.43,0-.77.14-1.04.43-.27.29-.4.65-.4,1.07s.13.77.4,1.06c.27.29.61.44,1.04.44.34,0,.62-.08.85-.24.23-.16.38-.36.45-.6l1.01.27c-.12.41-.38.77-.78,1.08-.4.31-.91.47-1.51.47-.72,0-1.31-.24-1.78-.71Z"/>
      <path class="cls-1" d="M32.55,16.94H0v37.26h18.07v-28.23h4.52v28.23h18.07v-29.17c0-.85-.34-1.66-.93-2.25l-4.91-4.91c-.6-.6-1.41-.93-2.25-.93Z"/>
      <path class="cls-1" d="M112.91,16.94v28.23h-4.52v-28.23h-18.07v29.17c0,.85.34,1.66.93,2.25l4.91,4.91c.6.6,1.41.93,2.25.93h32.55V16.94h-18.07Z"/>
      <path class="cls-1" d="M67.74,54.2h18.07V3.39l-16.3,8.15c-1.08.54-1.76,1.64-1.76,2.85v39.81Z"/>
      <path class="cls-1" d="M63.23,0h-18.07v15.81h15.81l-14.05,7.02c-1.08.54-1.76,1.64-1.76,2.85v28.52h18.07V0Z"/>
    </g>
  </g>
</svg>